<svg width="68" height="68" viewBox="0 0 68 68" fill="none" xmlns="http://www.w3.org/2000/svg">
<rect x="0.5" y="0.5" width="67" height="67" rx="7.5" stroke="#E4E4E4" stroke-opacity="0.4"/>
<path d="M42.9993 15.6621C41.3526 14.8873 39.5697 14.3249 37.7125 14C37.6798 14.0005 37.6487 14.0139 37.6258 14.0375C37.4029 14.4499 37.1429 14.9872 36.9696 15.3996C34.9997 15.0999 32.9965 15.0999 31.0266 15.3996C30.8532 14.9747 30.5932 14.4499 30.358 14.0375C30.3456 14.0125 30.3085 14 30.2713 14C28.4141 14.3249 26.6436 14.8873 24.9845 15.6621C24.9721 15.6621 24.9597 15.6746 24.9474 15.6871C21.5796 20.7732 20.6511 25.722 21.1092 30.6207C21.1092 30.6457 21.1215 30.6707 21.1463 30.6832C23.3749 32.3328 25.5169 33.3325 27.6341 33.9948C27.6712 34.0073 27.7084 33.9948 27.7208 33.9698C28.216 33.2825 28.6617 32.5577 29.0456 31.7954C29.0703 31.7454 29.0456 31.6954 28.996 31.6829C28.2903 31.408 27.6217 31.0831 26.9655 30.7082C26.916 30.6832 26.916 30.6082 26.9531 30.5707C27.0893 30.4707 27.2255 30.3583 27.3617 30.2583C27.3865 30.2333 27.4236 30.2333 27.4484 30.2458C31.7075 32.2078 36.301 32.2078 40.5106 30.2458C40.5354 30.2333 40.5725 30.2333 40.5973 30.2583C40.7335 30.3708 40.8697 30.4707 41.0059 30.5832C41.0554 30.6207 41.0554 30.6957 40.9935 30.7207C40.3497 31.1081 39.6687 31.4205 38.963 31.6954C38.9135 31.7079 38.9011 31.7704 38.9135 31.8079C39.3097 32.5702 39.7554 33.295 40.2383 33.9823C40.2754 33.9948 40.3125 34.0073 40.3497 33.9948C42.4793 33.3325 44.6212 32.3328 46.8499 30.6832C46.8746 30.6707 46.887 30.6457 46.887 30.6207C47.4318 24.9597 45.9832 20.0484 43.0488 15.6871C43.0364 15.6746 43.024 15.6621 42.9993 15.6621ZM29.6894 27.634C28.4141 27.634 27.3493 26.4468 27.3493 24.9847C27.3493 23.5225 28.3894 22.3353 29.6894 22.3353C31.0018 22.3353 32.0418 23.535 32.0295 24.9847C32.0295 26.4468 30.9894 27.634 29.6894 27.634ZM38.3192 27.634C37.0439 27.634 35.9791 26.4468 35.9791 24.9847C35.9791 23.5225 37.0191 22.3353 38.3192 22.3353C39.6316 22.3353 40.6716 23.535 40.6592 24.9847C40.6592 26.4468 39.6316 27.634 38.3192 27.634Z" fill="white"/>
<path d="M14.0076 46.6H17.4516C18.3796 46.6 19.1636 46.796 19.8036 47.188C20.4516 47.58 20.9156 48.08 21.1956 48.688C21.4836 49.296 21.6276 49.98 21.6276 50.74C21.6276 51.308 21.5436 51.84 21.3756 52.336C21.2156 52.832 20.9716 53.284 20.6436 53.692C20.3236 54.092 19.8876 54.412 19.3356 54.652C18.7916 54.884 18.1636 55 17.4516 55H14.0076V46.6ZM15.8556 48.292V53.272H17.4516C17.8836 53.272 18.2596 53.2 18.5796 53.056C18.8996 52.904 19.1396 52.7 19.2996 52.444C19.4676 52.188 19.5876 51.92 19.6596 51.64C19.7396 51.352 19.7796 51.044 19.7796 50.716C19.7796 50.028 19.5916 49.452 19.2156 48.988C18.8476 48.524 18.2596 48.292 17.4516 48.292H15.8556ZM24.2447 49.06V55H22.5167V49.06H24.2447ZM22.3967 47.5C22.3967 47.804 22.4967 48.044 22.6967 48.22C22.9047 48.396 23.1327 48.484 23.3807 48.484C23.6287 48.484 23.8527 48.396 24.0527 48.22C24.2607 48.044 24.3647 47.804 24.3647 47.5C24.3647 47.196 24.2607 46.956 24.0527 46.78C23.8527 46.604 23.6287 46.516 23.3807 46.516C23.1327 46.516 22.9047 46.604 22.6967 46.78C22.4967 46.956 22.3967 47.196 22.3967 47.5ZM30.0482 49.672L29.1962 50.752C28.7882 50.464 28.3202 50.32 27.7922 50.32C27.5202 50.32 27.3082 50.364 27.1562 50.452C27.0122 50.54 26.9402 50.66 26.9402 50.812C26.9402 51.14 27.2322 51.312 27.8162 51.328C28.0802 51.336 28.3162 51.356 28.5242 51.388C28.7402 51.412 28.9682 51.468 29.2082 51.556C29.4562 51.636 29.6602 51.74 29.8202 51.868C29.9802 51.996 30.1162 52.18 30.2282 52.42C30.3402 52.652 30.3962 52.924 30.3962 53.236C30.4042 53.78 30.1922 54.248 29.7602 54.64C29.3282 55.032 28.6762 55.228 27.8042 55.228C26.7562 55.228 25.8282 54.892 25.0202 54.22L25.7642 52.996C26.3482 53.476 27.0362 53.724 27.8282 53.74C28.0842 53.748 28.2962 53.704 28.4642 53.608C28.6402 53.512 28.7242 53.388 28.7162 53.236C28.7162 52.908 28.3802 52.732 27.7082 52.708C27.4122 52.692 27.1242 52.652 26.8442 52.588C26.5722 52.516 26.3082 52.412 26.0522 52.276C25.8042 52.132 25.6042 51.936 25.4522 51.688C25.3002 51.432 25.2242 51.14 25.2242 50.812C25.2242 50.18 25.4722 49.704 25.9682 49.384C26.4642 49.064 27.0682 48.904 27.7802 48.904C28.7002 48.904 29.4562 49.16 30.0482 49.672ZM35.305 53.092L36.397 54.22C35.781 54.828 35.009 55.132 34.081 55.132C33.153 55.132 32.381 54.872 31.765 54.352C31.149 53.832 30.841 53.064 30.841 52.048C30.841 51.088 31.153 50.332 31.777 49.78C32.401 49.22 33.165 48.94 34.069 48.94C34.981 48.94 35.697 49.212 36.217 49.756L35.257 50.848C34.953 50.616 34.581 50.5 34.141 50.5C33.693 50.5 33.321 50.64 33.025 50.92C32.729 51.192 32.581 51.568 32.581 52.048C32.581 52.504 32.729 52.868 33.025 53.14C33.321 53.404 33.681 53.536 34.105 53.536C34.313 53.536 34.529 53.496 34.753 53.416C34.985 53.336 35.169 53.228 35.305 53.092ZM39.7707 55.132C38.7867 55.132 37.9987 54.848 37.4067 54.28C36.8227 53.704 36.5307 52.96 36.5307 52.048C36.5307 51.144 36.8267 50.4 37.4187 49.816C38.0187 49.232 38.8027 48.94 39.7707 48.94C40.7467 48.94 41.5307 49.232 42.1227 49.816C42.7227 50.4 43.0227 51.144 43.0227 52.048C43.0227 52.96 42.7267 53.704 42.1347 54.28C41.5507 54.848 40.7627 55.132 39.7707 55.132ZM39.7707 53.596C40.2667 53.596 40.6387 53.448 40.8867 53.152C41.1427 52.848 41.2707 52.48 41.2707 52.048C41.2707 51.632 41.1427 51.268 40.8867 50.956C40.6307 50.644 40.2587 50.488 39.7707 50.488C39.2907 50.488 38.9227 50.644 38.6667 50.956C38.4107 51.268 38.2827 51.632 38.2827 52.048C38.2827 52.464 38.4067 52.828 38.6547 53.14C38.9107 53.444 39.2827 53.596 39.7707 53.596ZM43.9043 49.084H45.5123L45.6443 49.732C46.0203 49.204 46.5483 48.94 47.2283 48.94C47.7883 48.94 48.2723 49.12 48.6803 49.48L47.9603 50.848C47.6803 50.648 47.3643 50.548 47.0123 50.548C46.6203 50.548 46.2923 50.672 46.0283 50.92C45.7643 51.16 45.6323 51.492 45.6323 51.916V55H43.9043V49.084ZM51.8407 50.512C51.4007 50.512 51.0487 50.656 50.7847 50.944C50.5207 51.224 50.3887 51.588 50.3887 52.036C50.3887 52.476 50.5167 52.84 50.7727 53.128C51.0367 53.416 51.3927 53.56 51.8407 53.56C52.2807 53.56 52.6567 53.436 52.9687 53.188C53.2807 52.94 53.4367 52.556 53.4367 52.036C53.4367 51.564 53.2767 51.192 52.9567 50.92C52.6367 50.648 52.2647 50.512 51.8407 50.512ZM53.4607 46.612H55.2007V55H53.6527L53.5447 54.244C53.0967 54.82 52.4407 55.108 51.5767 55.108C50.7047 55.108 49.9967 54.828 49.4527 54.268C48.9167 53.7 48.6487 52.956 48.6487 52.036C48.6487 51.092 48.9207 50.344 49.4647 49.792C50.0087 49.232 50.7207 48.952 51.6007 48.952C52.3847 48.952 53.0047 49.232 53.4607 49.792V46.612Z" fill="white"/>
</svg>
