<svg width="206" height="62" viewBox="0 0 206 62" fill="none" xmlns="http://www.w3.org/2000/svg">
<rect y="38" width="76" height="24" rx="4" fill="#F4213A" fill-opacity="0.2"/>
<path d="M15.458 54V45.614H12.238V44.2H20.246V45.614H17.04V54H15.458ZM29.9682 54.014V46.496L26.6362 51.13H26.3002L23.0102 46.496V54.014H21.4422V44.214H23.2622L26.4962 48.806L29.7162 44.214H31.5362V54.014H29.9682ZM35.2947 54H33.7267V44.214H40.6567V45.74H35.2947V48.722H40.3907V50.178H35.2947V54ZM53.4449 53.72L53.6129 54H51.7789L48.7969 50.612H46.7249V54H45.1569V44.186C45.6609 44.186 46.4216 44.1907 47.4389 44.2C48.4563 44.2 49.2169 44.2 49.7209 44.2C50.8036 44.2 51.6483 44.5173 52.2549 45.152C52.8709 45.7773 53.1789 46.5287 53.1789 47.406C53.1789 48.1807 52.9596 48.8527 52.5209 49.422C52.0916 49.982 51.4243 50.3273 50.5189 50.458L53.4449 53.72ZM49.7209 45.628H46.7249V49.184H49.7069C50.3229 49.184 50.7896 49.016 51.1069 48.68C51.4243 48.344 51.5829 47.9287 51.5829 47.434C51.5829 46.9487 51.4243 46.5287 51.1069 46.174C50.7896 45.81 50.3276 45.628 49.7209 45.628ZM56.5348 45.628V49.548H59.5028C59.9134 49.548 60.2681 49.4547 60.5668 49.268C60.8748 49.072 61.0941 48.8293 61.2248 48.54C61.3648 48.2413 61.4348 47.924 61.4348 47.588C61.4348 47.252 61.3648 46.9393 61.2248 46.65C61.0941 46.3513 60.8748 46.1087 60.5668 45.922C60.2681 45.726 59.9134 45.628 59.5028 45.628H56.5348ZM59.5028 50.99H56.5348V54H54.9668V44.2C55.4614 44.2 56.2128 44.2 57.2208 44.2C58.2381 44.1907 58.9988 44.186 59.5028 44.186C60.0068 44.186 60.4688 44.2653 60.8888 44.424C61.3088 44.5733 61.6541 44.7787 61.9248 45.04C62.1954 45.3013 62.4241 45.6047 62.6108 45.95C62.8068 46.286 62.9234 46.6407 62.9608 47.014C63.0074 47.3873 63.0074 47.7653 62.9608 48.148C62.9234 48.5213 62.8114 48.8807 62.6248 49.226C62.4381 49.562 62.2048 49.8607 61.9248 50.122C61.6541 50.3833 61.3088 50.5933 60.8888 50.752C60.4688 50.9107 60.0068 50.99 59.5028 50.99Z" fill="#F4213A"/>
<path d="M2.184 1.4H6.552V16.996H16.352V21H2.184V1.4ZM24.6851 21.308C22.3891 21.308 20.5504 20.6453 19.1691 19.32C17.8064 17.976 17.1251 16.24 17.1251 14.112C17.1251 12.0027 17.8157 10.2667 19.1971 8.904C20.5971 7.54133 22.4264 6.86 24.6851 6.86C26.9624 6.86 28.7917 7.54133 30.1731 8.904C31.5731 10.2667 32.2731 12.0027 32.2731 14.112C32.2731 16.24 31.5824 17.976 30.2011 19.32C28.8384 20.6453 26.9997 21.308 24.6851 21.308ZM24.6851 17.724C25.8424 17.724 26.7104 17.3787 27.2891 16.688C27.8864 15.9787 28.1851 15.12 28.1851 14.112C28.1851 13.1413 27.8864 12.292 27.2891 11.564C26.6917 10.836 25.8237 10.472 24.6851 10.472C23.5651 10.472 22.7064 10.836 22.1091 11.564C21.5117 12.292 21.2131 13.1413 21.2131 14.112C21.2131 15.0827 21.5024 15.932 22.0811 16.66C22.6784 17.3693 23.5464 17.724 24.6851 17.724ZM44.8862 8.764L45.0262 7.168H48.8062V21H45.1662L44.9422 19.264C44.5129 19.936 43.8875 20.44 43.0662 20.776C42.2635 21.112 41.4702 21.2893 40.6862 21.308C38.5769 21.3267 36.8595 20.692 35.5342 19.404C34.2089 18.0973 33.5462 16.324 33.5462 14.084C33.5462 11.844 34.2275 10.0707 35.5902 8.764C36.9715 7.45733 38.7075 6.82267 40.7982 6.86C41.6942 6.86 42.5062 7.028 43.2342 7.364C43.9809 7.7 44.5315 8.16667 44.8862 8.764ZM41.2182 10.416C40.1729 10.416 39.3049 10.752 38.6142 11.424C37.9235 12.0773 37.5782 12.964 37.5782 14.084C37.5782 15.204 37.9235 16.0907 38.6142 16.744C39.3049 17.3973 40.1729 17.724 41.2182 17.724C42.3009 17.724 43.1782 17.3693 43.8502 16.66C44.5409 15.9507 44.8862 15.1387 44.8862 14.224C44.8862 13.16 44.5595 12.264 43.9062 11.536C43.2715 10.7893 42.3755 10.416 41.2182 10.416ZM58.317 10.528C57.2903 10.528 56.469 10.864 55.853 11.536C55.237 12.1893 54.929 13.0387 54.929 14.084C54.929 15.1107 55.2277 15.96 55.825 16.632C56.441 17.304 57.2717 17.64 58.317 17.64C59.3437 17.64 60.221 17.3507 60.949 16.772C61.677 16.1933 62.041 15.2973 62.041 14.084C62.041 12.9827 61.6677 12.1147 60.921 11.48C60.1743 10.8453 59.3063 10.528 58.317 10.528ZM62.097 1.428H66.157V21H62.545L62.293 19.236C61.2477 20.58 59.717 21.252 57.701 21.252C55.6663 21.252 54.0143 20.5987 52.745 19.292C51.4943 17.9667 50.869 16.2307 50.869 14.084C50.869 11.8813 51.5037 10.136 52.773 8.848C54.0423 7.54133 55.7037 6.888 57.757 6.888C59.5863 6.888 61.033 7.54133 62.097 8.848V1.428ZM73.0352 7.14V21H69.0032V7.14H73.0352ZM68.7232 3.5C68.7232 4.20933 68.9565 4.76933 69.4232 5.18C69.9085 5.59067 70.4405 5.796 71.0192 5.796C71.5978 5.796 72.1205 5.59067 72.5872 5.18C73.0725 4.76933 73.3152 4.20933 73.3152 3.5C73.3152 2.79067 73.0725 2.23067 72.5872 1.82C72.1205 1.40933 71.5978 1.204 71.0192 1.204C70.4405 1.204 69.9085 1.40933 69.4232 1.82C68.9565 2.23067 68.7232 2.79067 68.7232 3.5ZM89.9087 21H85.8487V13.692C85.8487 11.5453 84.8967 10.472 82.9927 10.472C82.078 10.4533 81.322 10.78 80.7247 11.452C80.146 12.124 79.8567 12.9267 79.8567 13.86V21H75.8807V7.168H79.5207L79.6607 8.932C80.762 7.49467 82.2553 6.79467 84.1407 6.832C87.986 6.832 89.9087 9.10933 89.9087 13.664V21ZM91.9866 22.904H95.7386C95.8692 24.7707 97.0266 25.704 99.2106 25.704C100.163 25.704 100.965 25.48 101.619 25.032C102.291 24.6027 102.627 23.9773 102.627 23.156C102.627 21.5693 101.507 20.776 99.2666 20.776C96.9892 20.776 95.1692 20.1507 93.8066 18.9C92.4626 17.6307 91.7906 15.932 91.7906 13.804C91.7906 11.564 92.5186 9.828 93.9746 8.596C95.4306 7.364 97.1946 6.748 99.2666 6.748C100.704 6.748 101.787 7 102.515 7.504L104.027 5.544L106.939 7.784L105.175 9.884C106.183 11.0973 106.659 12.4227 106.603 13.86C106.547 16.1 105.557 17.7147 103.635 18.704C105.688 19.6187 106.715 21.1027 106.715 23.156C106.715 25.0973 105.977 26.6 104.503 27.664C103.028 28.728 101.264 29.26 99.2106 29.26C96.8399 29.26 95.0292 28.7 93.7786 27.58C92.5466 26.4787 91.9492 24.92 91.9866 22.904ZM99.2666 10.332C98.2026 10.332 97.3346 10.64 96.6626 11.256C96.0092 11.872 95.6826 12.7213 95.6826 13.804C95.6826 14.7933 96.0186 15.596 96.6906 16.212C97.3812 16.8093 98.2399 17.108 99.2666 17.108C100.237 17.108 101.059 16.8187 101.731 16.24C102.403 15.6613 102.739 14.8493 102.739 13.804C102.739 12.8333 102.403 12.012 101.731 11.34C101.077 10.668 100.256 10.332 99.2666 10.332ZM129.892 3.724L127.148 6.132C126.625 5.59067 125.944 5.18 125.104 4.9C124.282 4.62 123.452 4.48 122.612 4.48C121.622 4.48 120.792 4.676 120.12 5.068C119.448 5.46 119.112 5.98267 119.112 6.636C119.112 7.45733 119.448 8.02667 120.12 8.344C120.81 8.64267 121.884 8.85733 123.34 8.988C128.361 9.41733 130.872 11.536 130.872 15.344C130.872 16.7253 130.47 17.9107 129.668 18.9C128.865 19.8707 127.857 20.5707 126.644 21C125.43 21.4107 124.086 21.6253 122.612 21.644C120.82 21.6627 119.14 21.3267 117.572 20.636C116.004 19.9453 114.828 18.9373 114.044 17.612L116.648 14.896C117.357 15.8107 118.262 16.5013 119.364 16.968C120.465 17.4347 121.557 17.668 122.64 17.668C123.797 17.668 124.74 17.4533 125.468 17.024C126.196 16.5947 126.56 16.0347 126.56 15.344C126.578 14.5413 126.261 13.9347 125.608 13.524C124.973 13.0947 123.974 12.824 122.612 12.712C121.436 12.6 120.428 12.4413 119.588 12.236C118.766 12.0307 117.964 11.7133 117.18 11.284C116.396 10.8547 115.798 10.2573 115.388 9.492C114.996 8.708 114.809 7.76533 114.828 6.664C114.846 4.79733 115.602 3.34133 117.096 2.296C118.608 1.232 120.437 0.699999 122.584 0.699999C124.189 0.699999 125.561 0.923999 126.7 1.372C127.857 1.82 128.921 2.604 129.892 3.724ZM142.444 16.548L144.992 19.18C143.555 20.5987 141.753 21.308 139.588 21.308C137.423 21.308 135.621 20.7013 134.184 19.488C132.747 18.2747 132.028 16.4827 132.028 14.112C132.028 11.872 132.756 10.108 134.212 8.82C135.668 7.51333 137.451 6.86 139.56 6.86C141.688 6.86 143.359 7.49467 144.572 8.764L142.332 11.312C141.623 10.7707 140.755 10.5 139.728 10.5C138.683 10.5 137.815 10.8267 137.124 11.48C136.433 12.1147 136.088 12.992 136.088 14.112C136.088 15.176 136.433 16.0253 137.124 16.66C137.815 17.276 138.655 17.584 139.644 17.584C140.129 17.584 140.633 17.4907 141.156 17.304C141.697 17.1173 142.127 16.8653 142.444 16.548ZM146.499 7.196H150.251L150.559 8.708C151.436 7.476 152.668 6.86 154.255 6.86C155.561 6.86 156.691 7.28 157.643 8.12L155.963 11.312C155.309 10.8453 154.572 10.612 153.751 10.612C152.836 10.612 152.071 10.9013 151.455 11.48C150.839 12.04 150.531 12.8147 150.531 13.804V21H146.499V7.196ZM171.766 15.4H161.602C161.714 16.1093 162.097 16.6973 162.75 17.164C163.403 17.612 164.271 17.836 165.354 17.836C166.903 17.836 168.098 17.472 168.938 16.744L171.206 19.264C169.825 20.6267 167.846 21.308 165.27 21.308C162.806 21.308 160.893 20.6453 159.53 19.32C158.186 17.9947 157.514 16.2027 157.514 13.944C157.514 11.816 158.177 10.0987 159.502 8.792C160.827 7.46667 162.61 6.804 164.85 6.804C167.295 6.804 169.162 7.55067 170.45 9.044C171.757 10.5373 172.195 12.656 171.766 15.4ZM161.602 12.46H168.154C168.117 11.7507 167.781 11.2093 167.146 10.836C166.511 10.444 165.746 10.248 164.85 10.248C164.047 10.248 163.357 10.444 162.778 10.836C162.199 11.228 161.807 11.7693 161.602 12.46ZM187.366 15.4H177.202C177.314 16.1093 177.697 16.6973 178.35 17.164C179.003 17.612 179.871 17.836 180.954 17.836C182.503 17.836 183.698 17.472 184.538 16.744L186.806 19.264C185.425 20.6267 183.446 21.308 180.87 21.308C178.406 21.308 176.493 20.6453 175.13 19.32C173.786 17.9947 173.114 16.2027 173.114 13.944C173.114 11.816 173.777 10.0987 175.102 8.792C176.427 7.46667 178.21 6.804 180.45 6.804C182.895 6.804 184.762 7.55067 186.05 9.044C187.357 10.5373 187.795 12.656 187.366 15.4ZM177.202 12.46H183.754C183.717 11.7507 183.381 11.2093 182.746 10.836C182.111 10.444 181.346 10.248 180.45 10.248C179.647 10.248 178.957 10.444 178.378 10.836C177.799 11.228 177.407 11.7693 177.202 12.46ZM203.526 21H199.466V13.692C199.466 11.5453 198.514 10.472 196.61 10.472C195.696 10.4533 194.94 10.78 194.342 11.452C193.764 12.124 193.474 12.9267 193.474 13.86V21H189.498V7.168H193.138L193.278 8.932C194.38 7.49467 195.873 6.79467 197.758 6.832C201.604 6.832 203.526 9.10933 203.526 13.664V21Z" fill="white"/>
</svg>
