<svg width="68" height="68" viewBox="0 0 68 68" fill="none" xmlns="http://www.w3.org/2000/svg">
<rect x="0.5" y="0.5" width="67" height="67" rx="7.5" stroke="#E4E4E4" stroke-opacity="0.4"/>
<path d="M44.8888 19.4333L43.7337 15.6889C43.4917 14.6889 42.6336 14 41.6326 14H26.3527C25.3627 14 24.4936 14.7 24.2626 15.6889L23.1075 19.4333C22.6015 21.6222 24.0426 22.8889 24.0976 22.9556V31.7778C24.0976 33 25.0877 34 26.2977 34H41.6986C42.9087 34 43.8987 33 43.8987 31.7778V22.9556C45.1308 21.7111 45.0978 20.2778 44.8888 19.4333ZM35.0982 16.2222H37.2543L37.8484 20.1333C37.9474 20.9222 37.4193 21.7778 36.4403 21.7778C35.7033 21.7778 35.0982 21.1222 35.0982 20.3222V16.2222ZM27.8818 20.5111C27.7938 21.2333 27.2218 21.7778 26.5507 21.7778C25.5277 21.7778 25.0656 20.7 25.2417 19.9556L26.3527 16.2222H28.5198L27.8818 20.5111ZM32.8981 20.3222C32.8981 21.1222 32.2931 21.7778 31.479 21.7778C30.654 21.7778 30.0489 21 30.1369 20.1333L30.742 16.2222H32.8981V20.3222ZM41.4456 21.7778C40.7745 21.7778 40.1915 21.2333 40.1145 20.5111L39.4765 16.2222L41.5996 16.2111L42.7547 19.9556C42.9307 20.7 42.4796 21.7778 41.4456 21.7778Z" fill="white"/>
<path d="M25.4409 47.596L24.2649 48.628C24.0409 48.396 23.7489 48.22 23.3889 48.1C23.0369 47.98 22.6809 47.92 22.3209 47.92C21.8969 47.92 21.5409 48.004 21.2529 48.172C20.9649 48.34 20.8209 48.564 20.8209 48.844C20.8209 49.196 20.9649 49.44 21.2529 49.576C21.5489 49.704 22.0089 49.796 22.6329 49.852C24.7849 50.036 25.8609 50.944 25.8609 52.576C25.8609 53.168 25.6889 53.676 25.3449 54.1C25.0009 54.516 24.5689 54.816 24.0489 55C23.5289 55.176 22.9529 55.268 22.3209 55.276C21.5529 55.284 20.8329 55.14 20.1609 54.844C19.4889 54.548 18.9849 54.116 18.6489 53.548L19.7649 52.384C20.0689 52.776 20.4569 53.072 20.9289 53.272C21.4009 53.472 21.8689 53.572 22.3329 53.572C22.8289 53.572 23.2329 53.48 23.5449 53.296C23.8569 53.112 24.0129 52.872 24.0129 52.576C24.0209 52.232 23.8849 51.972 23.6049 51.796C23.3329 51.612 22.9049 51.496 22.3209 51.448C21.8169 51.4 21.3849 51.332 21.0249 51.244C20.6729 51.156 20.3289 51.02 19.9929 50.836C19.6569 50.652 19.4009 50.396 19.2249 50.068C19.0569 49.732 18.9769 49.328 18.9849 48.856C18.9929 48.056 19.3169 47.432 19.9569 46.984C20.6049 46.528 21.3889 46.3 22.3089 46.3C22.9969 46.3 23.5849 46.396 24.0729 46.588C24.5689 46.78 25.0249 47.116 25.4409 47.596ZM27.1995 47.644L28.9275 47.452V49.108H30.4275V50.548H28.9155V52.78C28.9155 53.308 29.1395 53.572 29.5875 53.572C29.8755 53.572 30.1155 53.524 30.3075 53.428L30.7035 54.868C30.3115 55.02 29.8955 55.108 29.4555 55.132C28.7595 55.164 28.2075 55 27.7995 54.64C27.3995 54.272 27.1995 53.652 27.1995 52.78V50.548H26.1435V49.108H27.1995V47.644ZM34.2549 55.132C33.2709 55.132 32.4829 54.848 31.8909 54.28C31.3069 53.704 31.0149 52.96 31.0149 52.048C31.0149 51.144 31.3109 50.4 31.9029 49.816C32.5029 49.232 33.2869 48.94 34.2549 48.94C35.2309 48.94 36.0149 49.232 36.6069 49.816C37.2069 50.4 37.5069 51.144 37.5069 52.048C37.5069 52.96 37.2109 53.704 36.6189 54.28C36.0349 54.848 35.2469 55.132 34.2549 55.132ZM34.2549 53.596C34.7509 53.596 35.1229 53.448 35.3709 53.152C35.6269 52.848 35.7549 52.48 35.7549 52.048C35.7549 51.632 35.6269 51.268 35.3709 50.956C35.1149 50.644 34.7429 50.488 34.2549 50.488C33.7749 50.488 33.4069 50.644 33.1509 50.956C32.8949 51.268 32.7669 51.632 32.7669 52.048C32.7669 52.464 32.8909 52.828 33.1389 53.14C33.3949 53.444 33.7669 53.596 34.2549 53.596ZM38.3885 49.084H39.9965L40.1285 49.732C40.5045 49.204 41.0325 48.94 41.7125 48.94C42.2725 48.94 42.7565 49.12 43.1645 49.48L42.4445 50.848C42.1645 50.648 41.8485 50.548 41.4965 50.548C41.1045 50.548 40.7765 50.672 40.5125 50.92C40.2485 51.16 40.1165 51.492 40.1165 51.916V55H38.3885V49.084ZM49.2174 52.6H44.8614C44.9094 52.904 45.0734 53.156 45.3534 53.356C45.6334 53.548 46.0054 53.644 46.4694 53.644C47.1334 53.644 47.6454 53.488 48.0054 53.176L48.9774 54.256C48.3854 54.84 47.5374 55.132 46.4334 55.132C45.3774 55.132 44.5574 54.848 43.9734 54.28C43.3974 53.712 43.1094 52.944 43.1094 51.976C43.1094 51.064 43.3934 50.328 43.9614 49.768C44.5294 49.2 45.2934 48.916 46.2534 48.916C47.3014 48.916 48.1014 49.236 48.6534 49.876C49.2134 50.516 49.4014 51.424 49.2174 52.6ZM44.8614 51.34H47.6694C47.6534 51.036 47.5094 50.804 47.2374 50.644C46.9654 50.476 46.6374 50.392 46.2534 50.392C45.9094 50.392 45.6134 50.476 45.3654 50.644C45.1174 50.812 44.9494 51.044 44.8614 51.34Z" fill="white"/>
</svg>
