<svg width="68" height="68" viewBox="0 0 68 68" fill="none" xmlns="http://www.w3.org/2000/svg">
<rect x="0.5" y="0.5" width="67" height="67" rx="7.5" stroke="#E4E4E4" stroke-opacity="0.4"/>
<path d="M39.4872 17.1333C38.7463 16.2661 38.3379 15.1527 38.338 14H34.9879V27.7778C34.9626 28.5235 34.6556 29.2301 34.1317 29.7483C33.6078 30.2666 32.908 30.556 32.1798 30.5556C30.6403 30.5556 29.361 29.2667 29.361 27.6667C29.361 25.7556 31.1607 24.3222 33.0147 24.9111V21.4C29.2742 20.8889 26 23.8667 26 27.6667C26 31.3667 28.9923 34 32.169 34C35.5733 34 38.338 31.1667 38.338 27.6667V20.6778C39.6965 21.6776 41.3275 22.2141 43 22.2111V18.7778C43 18.7778 40.9617 18.8778 39.4872 17.1333Z" fill="white"/>
<path d="M19.2311 55V48.268H16.6751V46.6H23.6471V48.268H21.0911V55H19.2311ZM26.0739 49.06V55H24.3459V49.06H26.0739ZM24.2259 47.5C24.2259 47.804 24.3259 48.044 24.5259 48.22C24.7339 48.396 24.9619 48.484 25.2099 48.484C25.4579 48.484 25.6819 48.396 25.8819 48.22C26.0899 48.044 26.1939 47.804 26.1939 47.5C26.1939 47.196 26.0899 46.956 25.8819 46.78C25.6819 46.604 25.4579 46.516 25.2099 46.516C24.9619 46.516 24.7339 46.604 24.5259 46.78C24.3259 46.956 24.2259 47.196 24.2259 47.5ZM27.2934 46.612H29.0214V51.4L30.7734 49.084H32.8134V49.192L30.6414 51.868L33.1494 54.868V55H31.0734L29.0214 52.396V55H27.2934V46.612ZM34.7181 55V48.268H32.1621V46.6H39.1341V48.268H36.5781V55H34.7181ZM41.5531 55.132C40.5691 55.132 39.7811 54.848 39.1891 54.28C38.6051 53.704 38.3131 52.96 38.3131 52.048C38.3131 51.144 38.6091 50.4 39.2011 49.816C39.8011 49.232 40.5851 48.94 41.5531 48.94C42.5291 48.94 43.3131 49.232 43.9051 49.816C44.5051 50.4 44.8051 51.144 44.8051 52.048C44.8051 52.96 44.5091 53.704 43.9171 54.28C43.3331 54.848 42.5451 55.132 41.5531 55.132ZM41.5531 53.596C42.0491 53.596 42.4211 53.448 42.6691 53.152C42.9251 52.848 43.0531 52.48 43.0531 52.048C43.0531 51.632 42.9251 51.268 42.6691 50.956C42.4131 50.644 42.0411 50.488 41.5531 50.488C41.0731 50.488 40.7051 50.644 40.4491 50.956C40.1931 51.268 40.0651 51.632 40.0651 52.048C40.0651 52.464 40.1891 52.828 40.4371 53.14C40.6931 53.444 41.0651 53.596 41.5531 53.596ZM45.6867 46.612H47.4147V51.4L49.1667 49.084H51.2067V49.192L49.0347 51.868L51.5427 54.868V55H49.4667L47.4147 52.396V55H45.6867V46.612Z" fill="white"/>
</svg>
